name rise49.8558peak67.6521fall70.3087.mot
datacolumns 19
datarows 36
range 9.55329900000000 9.61163100000000
endheader
time	ground_force1_vx	ground_force1_vy	ground_force1_vz	ground_force1_px	ground_force1_py	ground_force1_pz	ground_force2_vx	ground_force2_vy	ground_force2_vz	ground_force2_px	ground_force2_py	ground_force2_pz	ground_torque1_x	ground_torque1_y	ground_torque1_z	ground_torque2_x	ground_torque2_y	ground_torque2_z	
9.55329900000000	9.71725100000000	693.30464300000006	42.78482100000000	0.29481700000000	0.00000000000000	0.12529700000000	0.00000000000000	0.00000000000000	0.00000000000000	0.00000000000000	0.00000000000000	0.00000000000000	0.00000000000000	22.19853500000000	0.00000000000000	0.00000000000000	0.00000000000000	0.00000000000000	
9.55496300000000	9.22737200000000	694.16063399999996	42.89767900000000	0.29377800000000	0.00000000000000	0.12533300000000	0.00000000000000	0.00000000000000	0.00000000000000	0.00000000000000	0.00000000000000	0.00000000000000	0.00000000000000	22.33304400000000	0.00000000000000	0.00000000000000	0.00000000000000	0.00000000000000	
9.55663000000000	8.72755200000000	695.05291599999998	43.01617800000000	0.29275500000000	0.00000000000000	0.12536700000000	0.00000000000000	0.00000000000000	0.00000000000000	0.00000000000000	0.00000000000000	0.00000000000000	0.00000000000000	22.47439600000000	0.00000000000000	0.00000000000000	0.00000000000000	0.00000000000000	
9.55829600000000	8.21764100000000	695.98026000000004	43.13990800000000	0.29174900000000	0.00000000000000	0.12540000000000	0.00000000000000	0.00000000000000	0.00000000000000	0.00000000000000	0.00000000000000	0.00000000000000	0.00000000000000	22.62234700000000	0.00000000000000	0.00000000000000	0.00000000000000	0.00000000000000	
9.55996200000000	7.69752600000000	696.94148700000005	43.26846700000000	0.29075800000000	0.00000000000000	0.12543200000000	0.00000000000000	0.00000000000000	0.00000000000000	0.00000000000000	0.00000000000000	0.00000000000000	0.00000000000000	22.77664800000000	0.00000000000000	0.00000000000000	0.00000000000000	0.00000000000000	
9.56162600000000	7.16712700000000	697.93546900000001	43.40146200000000	0.28978300000000	0.00000000000000	0.12546100000000	0.00000000000000	0.00000000000000	0.00000000000000	0.00000000000000	0.00000000000000	0.00000000000000	0.00000000000000	22.93704700000000	0.00000000000000	0.00000000000000	0.00000000000000	0.00000000000000	
9.56330000000000	6.62640000000000	698.96112900000003	43.53851100000000	0.28882300000000	0.00000000000000	0.12548900000000	0.00000000000000	0.00000000000000	0.00000000000000	0.00000000000000	0.00000000000000	0.00000000000000	0.00000000000000	23.10328800000000	0.00000000000000	0.00000000000000	0.00000000000000	0.00000000000000	
9.56496600000000	6.07533600000000	700.01745000000005	43.67924500000000	0.28787900000000	0.00000000000000	0.12551500000000	0.00000000000000	0.00000000000000	0.00000000000000	0.00000000000000	0.00000000000000	0.00000000000000	0.00000000000000	23.27511700000000	0.00000000000000	0.00000000000000	0.00000000000000	0.00000000000000	
9.56663200000000	5.51395800000000	701.10346800000002	43.82330500000000	0.28694800000000	0.00000000000000	0.12553900000000	0.00000000000000	0.00000000000000	0.00000000000000	0.00000000000000	0.00000000000000	0.00000000000000	0.00000000000000	23.45227400000000	0.00000000000000	0.00000000000000	0.00000000000000	0.00000000000000	
9.56829800000000	4.94232400000000	702.21827800000005	43.97034900000000	0.28603200000000	0.00000000000000	0.12556200000000	0.00000000000000	0.00000000000000	0.00000000000000	0.00000000000000	0.00000000000000	0.00000000000000	0.00000000000000	23.63450100000000	0.00000000000000	0.00000000000000	0.00000000000000	0.00000000000000	
9.56996000000000	4.36052400000000	703.36103000000003	44.12005200000000	0.28512900000000	0.00000000000000	0.12558200000000	0.00000000000000	0.00000000000000	0.00000000000000	0.00000000000000	0.00000000000000	0.00000000000000	0.00000000000000	23.82154000000000	0.00000000000000	0.00000000000000	0.00000000000000	0.00000000000000	
9.57163300000000	3.76868000000000	704.53093500000000	44.27210100000000	0.28424000000000	0.00000000000000	0.12560100000000	0.00000000000000	0.00000000000000	0.00000000000000	0.00000000000000	0.00000000000000	0.00000000000000	0.00000000000000	24.01313300000000	0.00000000000000	0.00000000000000	0.00000000000000	0.00000000000000	
9.57329800000000	3.16694500000000	705.72725900000000	44.42620600000000	0.28336300000000	0.00000000000000	0.12561800000000	0.00000000000000	0.00000000000000	0.00000000000000	0.00000000000000	0.00000000000000	0.00000000000000	0.00000000000000	24.20902500000000	0.00000000000000	0.00000000000000	0.00000000000000	0.00000000000000	
9.57495900000000	2.55550300000000	706.94932300000005	44.58209100000000	0.28249800000000	0.00000000000000	0.12563300000000	0.00000000000000	0.00000000000000	0.00000000000000	0.00000000000000	0.00000000000000	0.00000000000000	0.00000000000000	24.40896200000000	0.00000000000000	0.00000000000000	0.00000000000000	0.00000000000000	
9.57663300000000	1.93456300000000	708.19650400000000	44.73950400000000	0.28164500000000	0.00000000000000	0.12564600000000	0.00000000000000	0.00000000000000	0.00000000000000	0.00000000000000	0.00000000000000	0.00000000000000	0.00000000000000	24.61269300000000	0.00000000000000	0.00000000000000	0.00000000000000	0.00000000000000	
9.57829500000000	1.30436600000000	709.46823099999995	44.89821100000000	0.28080200000000	0.00000000000000	0.12565600000000	0.00000000000000	0.00000000000000	0.00000000000000	0.00000000000000	0.00000000000000	0.00000000000000	0.00000000000000	24.81997000000000	0.00000000000000	0.00000000000000	0.00000000000000	0.00000000000000	
9.57996400000000	0.66517800000000	710.76398400000005	45.05799800000000	0.27997000000000	0.00000000000000	0.12566500000000	0.00000000000000	0.00000000000000	0.00000000000000	0.00000000000000	0.00000000000000	0.00000000000000	0.00000000000000	25.03055000000000	0.00000000000000	0.00000000000000	0.00000000000000	0.00000000000000	
9.58162800000000	0.01728800000000	712.08328900000004	45.21867600000000	0.27914800000000	0.00000000000000	0.12567200000000	0.00000000000000	0.00000000000000	0.00000000000000	0.00000000000000	0.00000000000000	0.00000000000000	0.00000000000000	25.24419300000000	0.00000000000000	0.00000000000000	0.00000000000000	0.00000000000000	
9.58329500000000	-0.63898900000000	713.42571899999996	45.38007400000000	0.27833500000000	0.00000000000000	0.12567800000000	0.00000000000000	0.00000000000000	0.00000000000000	0.00000000000000	0.00000000000000	0.00000000000000	0.00000000000000	25.46066400000000	0.00000000000000	0.00000000000000	0.00000000000000	0.00000000000000	
9.58496500000000	-1.30331700000000	714.79088800000000	45.54204800000000	0.27753000000000	0.00000000000000	0.12568100000000	0.00000000000000	0.00000000000000	0.00000000000000	0.00000000000000	0.00000000000000	0.00000000000000	0.00000000000000	25.67973400000000	0.00000000000000	0.00000000000000	0.00000000000000	0.00000000000000	
9.58663300000000	-1.97533700000000	716.17844800000000	45.70447400000000	0.27673400000000	0.00000000000000	0.12568200000000	0.00000000000000	0.00000000000000	0.00000000000000	0.00000000000000	0.00000000000000	0.00000000000000	0.00000000000000	25.90117800000000	0.00000000000000	0.00000000000000	0.00000000000000	0.00000000000000	
9.58829900000000	-2.65467300000000	717.58808599999998	45.86725300000000	0.27594500000000	0.00000000000000	0.12568200000000	0.00000000000000	0.00000000000000	0.00000000000000	0.00000000000000	0.00000000000000	0.00000000000000	0.00000000000000	26.12477800000000	0.00000000000000	0.00000000000000	0.00000000000000	0.00000000000000	
9.58996200000000	-3.34093000000000	719.01951799999995	46.03030900000000	0.27516300000000	0.00000000000000	0.12568000000000	0.00000000000000	0.00000000000000	0.00000000000000	0.00000000000000	0.00000000000000	0.00000000000000	0.00000000000000	26.35032300000000	0.00000000000000	0.00000000000000	0.00000000000000	0.00000000000000	
9.59162900000000	-4.03369600000000	720.47248700000000	46.19358800000000	0.27438700000000	0.00000000000000	0.12567600000000	0.00000000000000	0.00000000000000	0.00000000000000	0.00000000000000	0.00000000000000	0.00000000000000	0.00000000000000	26.57760500000000	0.00000000000000	0.00000000000000	0.00000000000000	0.00000000000000	
9.59329900000000	-4.73254600000000	721.94675700000005	46.35706200000000	0.27361700000000	0.00000000000000	0.12567000000000	0.00000000000000	0.00000000000000	0.00000000000000	0.00000000000000	0.00000000000000	0.00000000000000	0.00000000000000	26.80642600000000	0.00000000000000	0.00000000000000	0.00000000000000	0.00000000000000	
9.59496300000000	-5.43704000000000	723.44210899999996	46.52072500000000	0.27285200000000	0.00000000000000	0.12566300000000	0.00000000000000	0.00000000000000	0.00000000000000	0.00000000000000	0.00000000000000	0.00000000000000	0.00000000000000	27.03659200000000	0.00000000000000	0.00000000000000	0.00000000000000	0.00000000000000	
9.59663800000000	-6.14672500000000	724.95833400000004	46.68459400000000	0.27209200000000	0.00000000000000	0.12565400000000	0.00000000000000	0.00000000000000	0.00000000000000	0.00000000000000	0.00000000000000	0.00000000000000	0.00000000000000	27.26791800000000	0.00000000000000	0.00000000000000	0.00000000000000	0.00000000000000	
9.59830000000000	-6.86114200000000	726.49523199999999	46.84870700000000	0.27133500000000	0.00000000000000	0.12564400000000	0.00000000000000	0.00000000000000	0.00000000000000	0.00000000000000	0.00000000000000	0.00000000000000	0.00000000000000	27.50022400000000	0.00000000000000	0.00000000000000	0.00000000000000	0.00000000000000	
9.59996000000000	-7.57981800000000	728.05260199999998	47.01312800000000	0.27058300000000	0.00000000000000	0.12563200000000	0.00000000000000	0.00000000000000	0.00000000000000	0.00000000000000	0.00000000000000	0.00000000000000	0.00000000000000	27.73333800000000	0.00000000000000	0.00000000000000	0.00000000000000	0.00000000000000	
9.60163200000000	-8.30227700000000	729.63024099999996	47.17793800000000	0.26983300000000	0.00000000000000	0.12561900000000	0.00000000000000	0.00000000000000	0.00000000000000	0.00000000000000	0.00000000000000	0.00000000000000	0.00000000000000	27.96709400000000	0.00000000000000	0.00000000000000	0.00000000000000	0.00000000000000	
9.60329600000000	-9.02803500000000	731.22793500000000	47.34324200000000	0.26908500000000	0.00000000000000	0.12560500000000	0.00000000000000	0.00000000000000	0.00000000000000	0.00000000000000	0.00000000000000	0.00000000000000	0.00000000000000	28.20133500000000	0.00000000000000	0.00000000000000	0.00000000000000	0.00000000000000	
9.60496300000000	-9.75660400000000	732.84545600000001	47.50916400000000	0.26833900000000	0.00000000000000	0.12558900000000	0.00000000000000	0.00000000000000	0.00000000000000	0.00000000000000	0.00000000000000	0.00000000000000	0.00000000000000	28.43590800000000	0.00000000000000	0.00000000000000	0.00000000000000	0.00000000000000	
9.60663000000000	-10.48749400000000	734.48255800000004	47.67584600000000	0.26759500000000	0.00000000000000	0.12557200000000	0.00000000000000	0.00000000000000	0.00000000000000	0.00000000000000	0.00000000000000	0.00000000000000	0.00000000000000	28.67066900000000	0.00000000000000	0.00000000000000	0.00000000000000	0.00000000000000	
9.60829400000000	-11.22021300000000	736.13896599999998	47.84345000000000	0.26685200000000	0.00000000000000	0.12555400000000	0.00000000000000	0.00000000000000	0.00000000000000	0.00000000000000	0.00000000000000	0.00000000000000	0.00000000000000	28.90547800000000	0.00000000000000	0.00000000000000	0.00000000000000	0.00000000000000	
9.60996800000000	-11.95426900000000	737.81437800000003	48.01215200000000	0.26610900000000	0.00000000000000	0.12553500000000	0.00000000000000	0.00000000000000	0.00000000000000	0.00000000000000	0.00000000000000	0.00000000000000	0.00000000000000	29.14020400000000	0.00000000000000	0.00000000000000	0.00000000000000	0.00000000000000	
9.61163100000000	-12.68917000000000	739.50845400000003	48.18214700000000	0.26536600000000	0.00000000000000	0.12551600000000	0.00000000000000	0.00000000000000	0.00000000000000	0.00000000000000	0.00000000000000	0.00000000000000	0.00000000000000	29.37472100000000	0.00000000000000	0.00000000000000	0.00000000000000	0.00000000000000	
